Gippi 2013 Hindi DVDSCR-Rip Xvid-Team IcTv


IMDB: http://www.imdb.com/title/tt2814372/


Source: Team Ictv and *SaM* (Cheers Guys)


Format : AVI
Format/Info : Audio Video Interleave
File size : 703 MiB
Duration : 1h 27mn
Overall bit rate : 1 126 Kbps

Video
ID : 0
Format : MPEG-4 Visual
Format profile : Advanced Simple@L5
Format settings, BVOP : 1
Format settings, QPel : No
Format settings, GMC : No warppoints
Format settings, Matrix : Default (H.263)
Muxing mode : Packed bitstream
Codec ID : XVID
Codec ID/Hint : XviD
Duration : 1h 27mn
Bit rate : 1 008 Kbps
Width : 640 pixels
Height : 272 pixels
Display aspect ratio : 2.35:1
Frame rate : 23.976 fps
Color space : YUV
Chroma subsampling : 4:2:0
Bit depth : 8 bits
Scan type : Progressive
Compression mode : Lossy
Bits/(Pixel*Frame) : 0.241
Stream size : 629 MiB (90%)
Writing library : XviD 1.2.1 (UTC 2008-12-04)

Audio
ID : 1
Format : MPEG Audio
Format version : Version 1
Format profile : Layer 3
Mode : Joint stereo
Mode extension : MS Stereo
Codec ID : 55
Codec ID/Hint : MP3
Duration : 1h 27mn
Bit rate mode : Constant
Bit rate : 112 Kbps
Channel(s) : 2 channels
Sampling rate : 44.1 KHz
Compression mode : Lossy
Stream size : 69.9 MiB (10%)
Alignment : Aligned on interleaves
Interleave, duration : 167 ms (4.00 video frames)
Interleave, preload duration : 208 ms
Title : VTS_01_1 T80 2_0ch 192Kbps DELAY 0ms
Writing library : LAME3.99r
Encoding settings : -m j -V 4 -q 2 -lowpass 15.6 -b 112


Poster:

 
http://i.imgur.com/pY4D7Sh.jpg


Screenshots:

 
http://i.imgur.com/UrbO1zf.jpg

 
http://i.imgur.com/vjceG7V.png

 
http://i.imgur.com/ghdSfsj.png


SEED AND ENJOY!